# xmcd
#
# Track frame offsets:
#	150
#	14279
#	24638
#	38399
#	50942
#	66510
#	79493
#	91272
#	104609
#	118221
#	131531
#	145785
#	160710
#	172157
#	182366
#	197150
#	210868
#	224310
#	238882
#	249728
#	261929
#	272727
#	284511
#	296771
#
# Disc length: 4111 seconds
#
# Revision: 0
# Processed by: cddbd v1.5.2PL0 Copyright (c) Steve Scherf et al.
# Submitted via: EZCDAudioConverter 2.1.5.1
#
DISCID=75100d18
DTITLE='s marvellous (cs 8337) and memories are made of this (cs 8037)
DYEAR=1957
DGENRE=Orchestra
TTITLE0=ray conniff - the way you look tonight
TTITLE1=ray conniff - i hear a rhapsody
TTITLE2=ray conniff - they can't take that away from me
TTITLE3=ray conniff - moonlight serenade
TTITLE4=ray conniff - i love you
TTITLE5=ray conniff - i've told every little star
TTITLE6=ray conniff - you do something to me
TTITLE7=ray conniff - as time goes by
TTITLE8=ray conniff - in the still of the night
TTITLE9=ray conniff - someone to watch over me
TTITLE10=ray conniff - be my love
TTITLE11=ray conniff - where or when
TTITLE12=ray conniff - memories are made of this
TTITLE13=ray conniff - tammy
TTITLE14=ray conniff - young love
TTITLE15=ray conniff - three coins in the fountain
TTITLE16=ray conniff - moments to remember
TTITLE17=ray conniff - my foolish heart
TTITLE18=ray conniffray conniff - love me tender
TTITLE19=ray conniff - around the world
TTITLE20=ray conniff - love letters in the sand
TTITLE21=ray conniff - unchained melody
TTITLE22=ray conniff - only you (and you alone)
TTITLE23=ray conniff - no other love
EXTD=
EXTT0=
EXTT1=
EXTT2=
EXTT3=
EXTT4=
EXTT5=
EXTT6=
EXTT7=
EXTT8=
EXTT9=
EXTT10=
EXTT11=
EXTT12=
EXTT13=
EXTT14=
EXTT15=
EXTT16=
EXTT17=
EXTT18=
EXTT19=
EXTT20=
EXTT21=
EXTT22=
EXTT23=
PLAYORDER=
